<svg width="357" height="22" viewBox="0 0 357 22" fill="none" xmlns="http://www.w3.org/2000/svg">
<line x1="154" y1="11.5" x2="-4.37114e-08" y2="11.5" stroke="#26384F"/>
<line x1="357" y1="11.5" x2="203" y2="11.5" stroke="#26384F"/>
<path d="M181.766 12.7109C181.766 14.1068 181.414 15.1979 180.711 15.9844C180.008 16.7656 179.036 17.1562 177.797 17.1562C177.031 17.1562 176.352 16.9766 175.758 16.6172C175.164 16.2578 174.706 15.7422 174.383 15.0703C174.06 14.3984 173.898 13.612 173.898 12.7109C173.898 11.3151 174.247 10.2292 174.945 9.45312C175.643 8.67188 176.612 8.28125 177.852 8.28125C179.049 8.28125 180 8.67969 180.703 9.47656C181.411 10.2734 181.766 11.3516 181.766 12.7109ZM175.242 12.7109C175.242 13.8047 175.461 14.638 175.898 15.2109C176.336 15.7839 176.979 16.0703 177.828 16.0703C178.677 16.0703 179.32 15.7865 179.758 15.2188C180.201 14.6458 180.422 13.8099 180.422 12.7109C180.422 11.6224 180.201 10.7969 179.758 10.2344C179.32 9.66667 178.672 9.38281 177.812 9.38281C176.964 9.38281 176.323 9.66146 175.891 10.2188C175.458 10.776 175.242 11.6068 175.242 12.7109Z" fill="#26384F"/>
</svg>
